# xmcd
#
# Track frame offsets:
# 150
# 20097
# 40751
# 61497
# 81959
# 106201
# 127776
# 144355
# 165010
# 183353
# 201864
# 219820
# 239232
# 256855
# 279079
# 297722
# 311963
#
# Disc length: 4389 seconds
#
#
# Revision: 2
# Processed by: cddbd v1.5.2PL0 Copyright (c) Steve Scherf et al.
# Submitted via: MfcCDDB 1.28 
#
DISCID=f1112311
DTITLE=Unknown Artist f1112311 - Unknown Album f1112311
DYEAR=2000
DGENRE=Unknown Genre f1112311
TTITLE0=Track01
TTITLE1=Track02
TTITLE2=Track03
TTITLE3=Track04
TTITLE4=Track05
TTITLE5=Track06
TTITLE6=Track07
TTITLE7=Track08
TTITLE8=Track09
TTITLE9=Track10
TTITLE10=Track11
TTITLE11=Track12
TTITLE12=Track13
TTITLE13=Track14
TTITLE14=Track15
TTITLE15=Track16
TTITLE16=Track17
EXTD=
EXTT0=
EXTT1=
EXTT2=
EXTT3=
EXTT4=
EXTT5=
EXTT6=
EXTT7=
EXTT8=
EXTT9=
EXTT10=
EXTT11=
EXTT12=
EXTT13=
EXTT14=
EXTT15=
EXTT16=
PLAYORDER=
